<svg width="459" height="121" viewBox="0 0 459 121" fill="none" xmlns="http://www.w3.org/2000/svg">
<path d="M43.1114 60.4388C45.4409 61.6035 47.2618 63.2358 48.5742 65.3356C49.8865 67.4354 50.7068 69.8059 51.0349 72.447C51.3794 75.0718 51.2645 77.7539 50.6904 80.4935C50.4607 81.5762 50.1654 82.6507 49.8045 83.717C48.8695 86.4566 47.4997 89.0731 45.6952 91.5666C43.8906 94.0437 41.758 96.1763 39.2973 97.9645C36.853 99.7526 34.1709 100.967 31.2509 101.606C26.9692 102.427 23.2372 101.803 20.0547 99.7362C18.2338 98.4894 16.782 96.9064 15.6993 94.987L15.4778 96.0205C15.1989 97.3821 14.5427 98.5796 13.5092 99.6131C12.4921 100.647 11.3028 101.352 9.94122 101.729C9.5147 101.844 9.07997 101.918 8.63705 101.951C8.62064 101.951 8.60424 101.951 8.58783 101.951C8.48941 101.951 8.39918 101.951 8.31716 101.951H8.29255H0.369105C2.40328 101.951 4.31442 101.237 6.10253 99.81C7.89064 98.3664 9.162 96.5455 9.91661 94.3472L20.8667 42.894C19.7512 43.0745 18.7505 42.9761 17.8647 42.5988C17.8155 42.5824 17.7662 42.5577 17.717 42.5249C17.5038 42.3773 17.4217 42.164 17.471 41.8852C17.5202 41.6883 17.6268 41.5161 17.7908 41.3684C17.9713 41.2208 18.1682 41.1469 18.3814 41.1469C18.4634 41.1469 18.5373 41.1634 18.6029 41.1962C18.6357 41.1962 18.6685 41.2126 18.7013 41.2454C19.3411 41.5571 20.0629 41.7129 20.8667 41.7129C21.7198 41.7129 22.5482 41.5407 23.352 41.1962C24.2051 40.8353 24.9679 40.3349 25.6405 39.6951C26.5591 38.8421 27.3712 37.8906 28.0766 36.8407L21.8756 66C24.2543 63.5885 26.961 61.743 29.9959 60.4634C34.7533 58.5933 39.1251 58.5851 43.1114 60.4388ZM16.0684 93.3383C17.4299 96.324 19.6118 98.514 22.6138 99.9084C23.5817 100.319 24.5988 100.614 25.6651 100.794C28.0602 100.351 30.365 99.203 32.5796 97.3493C34.8107 95.4792 36.7628 93.1005 38.4361 90.2133C40.1258 87.326 41.3397 84.1599 42.0779 80.715C42.8654 77.0403 42.972 73.6938 42.3978 70.6753C41.8237 67.6405 40.7081 65.2208 39.0513 63.4163C37.4108 61.5953 35.3356 60.6275 32.8257 60.5126C31.0376 60.9556 29.3069 61.661 27.6336 62.6288C25.337 63.9904 23.2946 65.6719 21.5065 67.6733L16.0684 93.3383ZM62.4279 94.2488C62.231 96.4634 62.715 98.3008 63.8797 99.7608C65.0608 101.221 66.6767 101.951 68.7273 101.951H60.73H59.6473H55.9809H54.8243H46.8763C48.9269 101.951 50.8462 101.229 52.6343 99.7854C54.4224 98.3254 55.6938 96.488 56.4484 94.2734L60.73 74.0957L62.5017 65.7293C61.4026 65.9262 60.4101 65.8359 59.5243 65.4586C59.4751 65.4258 59.4258 65.4012 59.3766 65.3848C59.1634 65.2372 59.0814 65.0239 59.1306 64.745C59.1798 64.5318 59.2864 64.3595 59.4505 64.2283C59.6309 64.0806 59.8278 64.0068 60.041 64.0068C60.123 64.0068 60.1969 64.015 60.2625 64.0314C60.2953 64.0478 60.3281 64.0642 60.3609 64.0806C61.0007 64.3923 61.7225 64.5482 62.5263 64.5482C63.3794 64.5482 64.2078 64.3759 65.0116 64.0314C65.7006 63.7526 66.3404 63.367 66.931 62.8749C67.0622 62.7601 67.1852 62.6534 67.3001 62.555C67.2837 62.5714 67.2755 62.5796 67.2755 62.5796C67.2755 62.5796 67.2837 62.5714 67.3001 62.555C68.2187 61.6856 69.0308 60.7259 69.7362 59.676L66.6603 74.0957L62.4525 93.8797L62.4771 93.9043C62.4607 94.0191 62.4443 94.134 62.4279 94.2488ZM67.4231 56.5509C66.4388 56.5509 65.6678 56.2064 65.1101 55.5174C64.5687 54.812 64.4047 53.9672 64.6179 52.9829C64.8148 51.9986 65.3397 51.1538 66.1928 50.4484C67.0458 49.743 67.9645 49.3903 68.9487 49.3903C69.933 49.3903 70.6958 49.743 71.2372 50.4484C71.795 51.1538 71.9754 51.9986 71.7786 52.9829C71.5653 53.9672 71.0321 54.812 70.1791 55.5174C69.3261 56.2064 68.4074 56.5509 67.4231 56.5509ZM110.239 94.2488C110.042 96.4634 110.526 98.3008 111.691 99.7608C112.872 101.221 114.488 101.951 116.539 101.951H107.434H103.792C103.792 101.951 103.784 101.951 103.768 101.951H94.6876C96.7382 101.951 98.6576 101.221 100.446 99.7608C102.234 98.3008 103.505 96.4634 104.26 94.2488C104.293 94.1504 104.325 94.0519 104.358 93.9535L109.501 69.691C109.714 68.5427 109.649 67.5092 109.304 66.5906C109.288 66.5085 109.263 66.4347 109.23 66.3691C109.198 66.2707 109.157 66.1804 109.107 66.0984C109.075 66.0164 109.034 65.9426 108.984 65.877C108.886 65.7129 108.771 65.5571 108.64 65.4094C108.623 65.3766 108.599 65.3438 108.566 65.311C108.533 65.2618 108.492 65.2126 108.443 65.1634C108.443 65.147 108.435 65.1305 108.418 65.1141C108.008 64.6548 107.549 64.2611 107.04 63.933C107.008 63.9166 106.975 63.892 106.942 63.8592C106.548 63.6295 106.13 63.4327 105.687 63.2686C105.211 63.1046 104.719 62.9897 104.211 62.9241C104.079 62.9077 103.956 62.8995 103.841 62.8995C103.07 62.8503 102.283 62.9077 101.479 63.0718C100.298 63.3178 99.1169 63.7444 97.9358 64.3513C96.9679 64.8599 96.0246 65.4586 95.106 66.1476C94.7123 66.4593 94.3267 66.7792 93.9494 67.1073C92.473 68.4525 91.1032 69.8961 89.8401 71.4381L89.7909 71.512L89.2249 74.0711L85.0171 93.8797L85.0417 93.9043C85.0253 94.0191 85.0089 94.134 84.9925 94.2488C84.7956 96.4634 85.2796 98.3008 86.4443 99.7608C87.6254 101.221 89.2413 101.951 91.2919 101.951H82.2119C82.1955 101.951 82.1873 101.951 82.1873 101.951C82.1709 101.951 82.1627 101.951 82.1627 101.951H78.5947C78.5783 101.951 78.5701 101.951 78.5701 101.951C78.5537 101.951 78.5455 101.951 78.5455 101.951H69.4655C71.4997 101.951 73.4108 101.229 75.1989 99.7854C76.987 98.3254 78.2584 96.4962 79.013 94.298L85.0909 65.7293C83.9754 65.9098 82.9747 65.8113 82.0889 65.434C82.0397 65.4176 81.9904 65.4012 81.9412 65.3848C81.728 65.2208 81.6459 64.9993 81.6952 64.7204C81.7444 64.5236 81.851 64.3513 82.0151 64.2037C82.1955 64.056 82.3924 63.9822 82.6056 63.9822C82.6876 63.9822 82.7615 63.9986 82.8271 64.0314C82.8763 64.0478 82.9173 64.0642 82.9501 64.0806C83.5735 64.3923 84.2871 64.5482 85.0909 64.5482C85.944 64.5482 86.7724 64.3759 87.5762 64.0314C88.2652 63.7526 88.905 63.367 89.4956 62.8749C89.6268 62.7601 89.7498 62.6452 89.8647 62.5304C89.8647 62.5468 89.8647 62.555 89.8647 62.555C89.8647 62.555 89.8565 62.5632 89.8401 62.5796C89.8565 62.5632 89.8647 62.555 89.8647 62.555C90.7833 61.6856 91.5954 60.7259 92.3008 59.676L90.16 69.691C90.8982 68.8708 91.6692 68.0752 92.473 67.3042C92.5879 67.1893 92.7027 67.0745 92.8175 66.9597C92.8339 66.9597 92.8421 66.9597 92.8421 66.9597C94.7287 65.1552 96.7956 63.6295 99.0431 62.3828C101.291 61.1196 103.628 60.3404 106.056 60.0451C107.68 59.8647 109.222 59.9877 110.682 60.4142C111.076 60.5454 111.461 60.6931 111.839 60.8571C111.986 60.9228 112.126 60.9884 112.257 61.054H112.306C112.913 61.3329 113.471 61.6692 113.98 62.0629C114.406 62.3254 114.767 62.6534 115.062 63.0472C115.062 63.0636 115.07 63.0718 115.087 63.0718C115.087 63.0718 115.087 63.08 115.087 63.0964C115.316 63.3917 115.505 63.7279 115.653 64.1053C115.768 64.4169 115.858 64.7532 115.923 65.1141C115.956 65.2782 115.981 65.4504 115.997 65.6309C116.03 65.9754 116.038 66.3281 116.022 66.689C116.005 66.8366 115.989 66.9925 115.973 67.1565L115.702 68.4607L115.111 71.2659H115.087L110.264 94.0519C110.264 94.0684 110.256 94.093 110.239 94.1258C110.239 94.1586 110.239 94.1996 110.239 94.2488ZM163.218 94.298C164.859 97.5789 165.055 101.229 163.809 105.248C163.333 106.643 162.628 107.988 161.692 109.284C160.774 110.596 159.716 111.81 158.518 112.925C156.599 115.304 154.22 117.051 151.382 118.167C147.363 119.66 143.738 119.545 140.506 117.822C139.587 117.297 138.71 116.731 137.873 116.124C137.069 115.517 136.224 114.96 135.338 114.451C133.37 113.368 131.213 112.647 128.867 112.286C128.834 112.269 128.801 112.261 128.768 112.261C128.752 112.261 128.736 112.261 128.719 112.261C126.504 112.327 124.462 112.761 122.592 113.565C120.738 114.386 119.262 115.444 118.163 116.74C118.163 116.756 118.163 116.764 118.163 116.764C118.13 116.813 118.089 116.854 118.04 116.887C117.466 117.543 116.809 117.871 116.071 117.871C115.481 117.871 115.021 117.658 114.693 117.232C114.365 116.822 114.267 116.329 114.398 115.755C114.414 115.69 114.431 115.624 114.447 115.558C114.447 115.542 114.455 115.526 114.472 115.509C114.488 115.444 114.504 115.386 114.521 115.337C114.521 115.321 114.529 115.312 114.545 115.312C114.545 115.312 114.545 115.304 114.545 115.288C114.562 115.239 114.586 115.189 114.619 115.14C114.619 115.124 114.628 115.107 114.644 115.091C114.66 115.042 114.685 114.992 114.718 114.943C114.734 114.927 114.742 114.91 114.742 114.894C114.759 114.894 114.767 114.894 114.767 114.894C114.783 114.845 114.808 114.804 114.841 114.771C114.857 114.755 114.874 114.738 114.89 114.722C114.923 114.673 114.956 114.632 114.988 114.599C115.005 114.566 115.029 114.541 115.062 114.525C115.079 114.492 115.095 114.468 115.111 114.451C115.161 114.402 115.218 114.353 115.284 114.303C115.284 114.287 115.284 114.279 115.284 114.279C115.316 114.262 115.358 114.238 115.407 114.205C115.407 114.189 115.415 114.18 115.431 114.18C115.53 114.098 115.645 114.025 115.776 113.959C116.58 113.385 117.424 112.901 118.31 112.507C120.509 111.572 122.723 111.072 124.954 111.006C127.202 110.957 129.326 111.203 131.327 111.744C133.444 112.286 135.371 113.131 137.11 114.279C137.586 114.591 138.053 114.91 138.513 115.239C139.727 116.19 141.055 116.977 142.499 117.601C144.156 118.224 145.936 118.405 147.839 118.142C149.742 117.88 151.587 117.24 153.375 116.223C155.229 115.14 156.763 113.77 157.977 112.113C159.207 110.457 160.044 108.66 160.487 106.725C160.913 104.723 160.864 102.812 160.339 100.991C159.814 99.1702 158.772 97.7594 157.214 96.7587C155.918 96.0041 154.507 95.7334 152.982 95.9467C151.472 96.1599 149.955 96.6603 148.429 97.4477C146.92 98.2351 145.501 99.1046 144.172 100.056C143.844 100.269 143.524 100.491 143.213 100.72C141.408 102.033 139.538 103.214 137.602 104.264C135.666 105.33 133.657 105.904 131.574 105.986C129.671 105.986 128.005 105.502 126.578 104.535C125.167 103.567 124.109 102.295 123.404 100.72C122.6 98.7847 122.412 96.6931 122.838 94.4457C123.281 92.1982 124.167 90.0328 125.496 87.9494C126.562 86.3418 127.8 84.8571 129.211 83.4956C128.621 82.8886 128.014 82.093 127.39 81.1087C126.816 80.1736 126.381 79.0991 126.086 77.8852C125.807 76.6548 125.799 75.3014 126.062 73.825C126.669 71.2003 128.071 68.8544 130.269 66.7874C132.468 64.704 135.051 63.0554 138.021 61.8414C140.99 60.6275 143.828 60.0205 146.535 60.0205C149.241 60.0205 151.669 60.4634 153.818 61.3493C154.474 59.4627 155.508 57.7731 156.919 56.2802C158.329 54.7874 159.986 53.5981 161.889 52.7122C163.792 51.8264 165.769 51.3834 167.82 51.3834C169.001 51.3834 170.1 51.5393 171.117 51.851C171.297 51.9002 171.47 51.9576 171.634 52.0232C172.109 52.3349 172.282 52.786 172.15 53.3766C172.068 53.8031 171.847 54.1722 171.486 54.4839C171.125 54.7792 170.731 54.9269 170.305 54.9269C170.223 54.9269 170.141 54.9187 170.059 54.9022C169.944 54.8858 169.837 54.853 169.739 54.8038C168.837 54.5413 167.877 54.4101 166.86 54.4101C164.448 54.4101 162.152 55.0827 159.97 56.4279C157.788 57.7567 156.049 59.5038 154.753 61.6692C157.198 62.8831 159.002 64.54 160.167 66.6398C161.332 68.7232 161.66 71.069 161.151 73.6774V73.7266C161.151 73.743 161.151 73.7512 161.151 73.7512C161.151 73.7512 161.151 73.7594 161.151 73.7758L161.126 73.825C161.094 73.9727 161.061 74.1121 161.028 74.2433C160.815 75.08 160.52 75.892 160.142 76.6794C158.584 79.8291 156.074 82.4128 152.612 84.4306C149.167 86.4484 145.329 87.5229 141.096 87.6541C140.949 87.6541 140.801 87.6541 140.653 87.6541C140.588 87.6541 140.514 87.6541 140.432 87.6541C139.694 87.6541 138.988 87.6131 138.316 87.5311C137.43 87.4163 136.618 87.2686 135.88 87.0882C135.814 87.0718 135.748 87.0554 135.683 87.039C133.55 86.3992 132.082 85.8004 131.278 85.2426C130.868 84.9802 130.663 84.8489 130.663 84.8489C130.581 84.7833 130.515 84.7341 130.466 84.7013C130.466 84.6849 130.458 84.6767 130.442 84.6767C130.327 84.5783 130.163 84.4306 129.949 84.2338C129.917 84.201 129.876 84.1681 129.826 84.1353C129.334 84.6111 128.859 85.1032 128.399 85.6118C128.235 85.7758 128.079 85.948 127.932 86.1285H127.956C127.234 87.0308 126.718 88.1955 126.406 89.6227C126.094 91.1155 126.135 92.3213 126.529 93.2399V93.2645C127.12 94.4621 127.997 95.4956 129.162 96.365C130.327 97.2344 131.844 97.5133 133.714 97.2016C134.633 97.0212 135.683 96.6603 136.864 96.1189C138.062 95.5776 139.358 94.9624 140.752 94.2734C143.016 93.1087 145.378 92.0342 147.839 91.0499C150.316 90.0492 152.711 89.5079 155.024 89.4258C157.353 89.3438 159.412 90.082 161.2 91.6405C162.021 92.3951 162.693 93.2809 163.218 94.298ZM146.362 60.8817C144.689 60.9146 143.057 61.5133 141.466 62.6781C139.891 63.8264 138.496 65.3848 137.282 67.3534C136.068 69.3055 135.207 71.4791 134.699 73.8742C134.124 76.5482 134.108 78.9597 134.649 81.1087C134.994 82.4539 135.519 83.5858 136.224 84.5044C137.373 86.0465 138.906 86.8339 140.826 86.8667C140.973 86.8667 141.113 86.8667 141.244 86.8667C142.868 86.7355 144.443 86.0875 145.969 84.9228C147.494 83.7416 148.839 82.1914 150.004 80.272C151.185 78.3363 152.022 76.2037 152.514 73.8742C153.023 71.4791 153.08 69.3055 152.686 67.3534C152.309 65.3848 151.571 63.8182 150.472 62.6534C149.373 61.4723 148.003 60.8817 146.362 60.8817ZM204.066 95.3069C205.28 97.1114 207.076 98.6699 209.455 99.9822C211.85 101.295 213.982 101.951 215.852 101.951H206.354H200.719H199.563C199.464 101.951 199.366 101.951 199.267 101.951H190.187C191.664 101.951 193.091 101.557 194.469 100.77C195.863 99.9658 197.061 98.8913 198.062 97.5461L190.63 75.9658C190.63 75.9822 190.63 75.9904 190.63 75.9904C188.284 77.9262 185.93 79.8701 183.568 81.8223L180.984 93.9535L181.009 93.9781C180.993 94.093 180.976 94.2078 180.96 94.3226C180.763 96.5537 181.247 98.3992 182.412 99.8592C183.593 101.303 185.209 102.025 187.259 102.025H178.179C178.179 102.025 178.171 102.025 178.155 102.025H174.513H165.433C167.467 102.025 169.378 101.303 171.166 99.8592C172.954 98.3992 174.226 96.5701 174.98 94.3718L179.286 74.0957L181.058 65.7293C179.959 65.9262 178.967 65.8359 178.081 65.4586C178.031 65.4258 177.982 65.4012 177.933 65.3848C177.72 65.2372 177.638 65.0239 177.687 64.745C177.736 64.5318 177.843 64.3595 178.007 64.2283C178.187 64.0806 178.384 64.0068 178.597 64.0068C178.679 64.0068 178.753 64.015 178.819 64.0314C178.852 64.0478 178.885 64.0642 178.917 64.0806C179.557 64.3923 180.279 64.5482 181.083 64.5482C181.936 64.5482 182.764 64.3759 183.568 64.0314C184.405 63.6869 185.159 63.203 185.832 62.5796C185.832 62.5796 185.84 62.5714 185.856 62.555C186.775 61.6856 187.587 60.7259 188.293 59.676L188.268 59.7744L187.038 65.5325L185.217 74.0957L183.863 80.4197C184.191 80.1572 184.511 79.8947 184.823 79.6323C185.135 79.3698 185.446 79.1073 185.758 78.8448C186.529 78.2215 187.292 77.5981 188.047 76.9747C188.801 76.3349 189.556 75.7033 190.31 75.08C192.066 73.62 193.829 72.1599 195.601 70.6999C196.126 70.257 196.659 69.8141 197.2 69.3711C197.742 68.9118 198.283 68.4607 198.824 68.0178C198.841 68.0014 198.849 67.9932 198.849 67.9932C198.882 67.9768 198.906 67.9603 198.923 67.9439C199.12 67.7799 199.317 67.6159 199.513 67.4518C199.727 67.2714 199.94 67.0909 200.153 66.9105C200.612 66.5331 201.064 66.164 201.507 65.8031C201.507 65.8031 201.507 65.7949 201.507 65.7785C201.572 65.7293 201.646 65.6801 201.728 65.6309C201.794 65.5653 201.859 65.5079 201.925 65.4586C203.237 64.2447 203.713 63.2112 203.352 62.3582C202.991 61.4887 202.163 60.8243 200.867 60.365C199.587 59.9057 198.283 59.676 196.954 59.676H208.396C208.544 59.676 208.692 59.6842 208.839 59.7006C208.987 59.6842 209.135 59.676 209.282 59.676H209.971H220.725C219.363 59.676 217.796 59.7744 216.025 59.9713C214.253 60.1681 212.334 60.6521 210.267 61.4231C208.2 62.1941 206.034 63.4081 203.77 65.0649C203.738 65.0977 203.697 65.1305 203.647 65.1634C203.631 65.1798 203.615 65.1962 203.598 65.2126C201.105 67.2796 198.619 69.3465 196.142 71.4135C196.06 71.4791 195.978 71.5448 195.896 71.6104L204.066 95.3069ZM228.18 94.2488C227.984 96.4634 228.468 98.3008 229.632 99.7608C230.813 101.221 232.429 101.951 234.48 101.951H226.483H225.4H221.733H220.577H212.629C214.679 101.951 216.599 101.229 218.387 99.7854C220.175 98.3254 221.446 96.488 222.201 94.2734L226.483 74.0957L228.254 65.7293C227.155 65.9262 226.163 65.8359 225.277 65.4586C225.228 65.4258 225.178 65.4012 225.129 65.3848C224.916 65.2372 224.834 65.0239 224.883 64.745C224.932 64.5318 225.039 64.3595 225.203 64.2283C225.384 64.0806 225.58 64.0068 225.794 64.0068C225.876 64.0068 225.949 64.015 226.015 64.0314C226.048 64.0478 226.081 64.0642 226.114 64.0806C226.753 64.3923 227.475 64.5482 228.279 64.5482C229.132 64.5482 229.96 64.3759 230.764 64.0314C231.453 63.7526 232.093 63.367 232.684 62.8749C232.815 62.7601 232.938 62.6534 233.053 62.555C233.036 62.5714 233.028 62.5796 233.028 62.5796C233.028 62.5796 233.036 62.5714 233.053 62.555C233.971 61.6856 234.783 60.7259 235.489 59.676L232.413 74.0957L228.205 93.8797L228.23 93.9043C228.213 94.0191 228.197 94.134 228.18 94.2488ZM233.176 56.5509C232.191 56.5509 231.42 56.2064 230.863 55.5174C230.321 54.812 230.157 53.9672 230.371 52.9829C230.567 51.9986 231.092 51.1538 231.945 50.4484C232.798 49.743 233.717 49.3903 234.701 49.3903C235.686 49.3903 236.448 49.743 236.99 50.4484C237.548 51.1538 237.728 51.9986 237.531 52.9829C237.318 53.9672 236.785 54.812 235.932 55.5174C235.079 56.2064 234.16 56.5509 233.176 56.5509ZM269.373 84.972C269.783 85.6118 270.094 86.309 270.308 87.0636C270.701 88.4252 270.677 89.8852 270.234 91.4436C270.201 91.5092 270.176 91.5666 270.16 91.6159C269.733 92.8954 269.069 94.0766 268.167 95.1593C267.281 96.242 266.264 97.1934 265.116 98.0137C262.146 100.048 258.964 101.327 255.568 101.852C252.189 102.377 249.023 102.246 246.07 101.459C244.446 101.032 242.92 100.351 241.493 99.4163C240.082 98.4648 238.991 97.2673 238.22 95.8236C237.449 94.38 237.244 92.6904 237.605 90.7546V90.73C237.736 90.1394 237.925 89.5571 238.171 88.9829C238.45 88.3431 238.786 87.728 239.18 87.1374C239.196 87.121 239.213 87.1046 239.229 87.0882C239.459 86.7437 239.738 86.4648 240.066 86.2515C240.279 86.1203 240.492 86.0219 240.705 85.9563C240.935 85.8742 241.173 85.8332 241.419 85.8332H241.444C241.476 85.8332 241.509 85.8414 241.542 85.8578C241.558 85.8578 241.583 85.8578 241.616 85.8578C241.632 85.8578 241.649 85.8578 241.665 85.8578C241.682 85.8578 241.698 85.8578 241.714 85.8578C241.747 85.8742 241.772 85.8824 241.788 85.8824C241.821 85.8824 241.854 85.8906 241.887 85.907C241.903 85.907 241.928 85.907 241.96 85.907C241.96 85.9234 241.969 85.9316 241.985 85.9316C242.018 85.9316 242.051 85.9398 242.083 85.9563C242.116 85.9727 242.141 85.9809 242.157 85.9809C242.19 85.9973 242.223 86.0137 242.256 86.0301C242.288 86.0465 242.313 86.0629 242.33 86.0793C242.346 86.0957 242.362 86.1039 242.379 86.1039C242.395 86.1203 242.412 86.1367 242.428 86.1531C242.461 86.1695 242.485 86.1859 242.502 86.2023C242.518 86.2023 242.526 86.2023 242.526 86.2023C242.543 86.2187 242.559 86.2351 242.576 86.2515C242.625 86.3007 242.674 86.35 242.723 86.3992C242.74 86.4156 242.756 86.4402 242.772 86.473C242.805 86.4894 242.83 86.514 242.846 86.5468C242.846 86.5632 242.854 86.5796 242.871 86.596C242.887 86.6288 242.904 86.6617 242.92 86.6945C242.936 86.7109 242.953 86.7273 242.969 86.7437C242.969 86.7765 242.977 86.8011 242.994 86.8175C242.994 86.8339 243.002 86.8503 243.019 86.8667C243.035 86.9323 243.051 87.0061 243.068 87.0882C243.084 87.121 243.092 87.1456 243.092 87.162C243.109 87.2112 243.117 87.2522 243.117 87.285C243.117 87.3178 243.117 87.3424 243.117 87.3588C243.117 87.4081 243.117 87.4491 243.117 87.4819C243.133 87.4819 243.133 87.4901 243.117 87.5065C243.133 87.5229 243.133 87.5393 243.117 87.5557C243.117 87.7526 243.06 87.9412 242.945 88.1217C242.912 88.1709 242.887 88.2201 242.871 88.2693C242.838 88.3185 242.813 88.3677 242.797 88.4169C242.781 88.4169 242.772 88.4252 242.772 88.4416C242.74 88.4908 242.715 88.54 242.699 88.5892C242.682 88.6056 242.674 88.622 242.674 88.6384C242.576 88.8189 242.485 89.0075 242.403 89.2044C242.19 89.7293 242.026 90.2625 241.911 90.8038C241.55 92.4935 241.706 94.0519 242.379 95.4792C243.051 96.9064 244.126 98.1039 245.602 99.0718C247.079 100.023 248.859 100.671 250.942 101.016C251.385 101.081 251.844 101.131 252.32 101.163C252.418 101.163 252.517 101.163 252.615 101.163C253.239 101.147 253.862 101.098 254.485 101.016C254.584 100.999 254.682 100.967 254.781 100.917C254.781 100.917 254.789 100.917 254.805 100.917C254.887 100.884 254.969 100.852 255.051 100.819C255.051 100.819 255.06 100.819 255.076 100.819C255.076 100.802 255.076 100.794 255.076 100.794C255.092 100.794 255.101 100.794 255.101 100.794C255.166 100.761 255.232 100.729 255.297 100.696C255.347 100.679 255.388 100.663 255.42 100.647C255.486 100.614 255.552 100.573 255.617 100.524C255.634 100.524 255.642 100.524 255.642 100.524C255.658 100.524 255.666 100.515 255.666 100.499C255.749 100.45 255.831 100.401 255.913 100.351C255.929 100.351 255.937 100.351 255.937 100.351C255.937 100.351 255.937 100.343 255.937 100.327C255.954 100.327 255.962 100.327 255.962 100.327C256.044 100.278 256.126 100.22 256.208 100.154C256.224 100.154 256.232 100.154 256.232 100.154C256.314 100.089 256.396 100.023 256.479 99.9576C256.495 99.9412 256.511 99.9248 256.528 99.9084C256.61 99.8592 256.692 99.8018 256.774 99.7362C256.79 99.7198 256.798 99.7116 256.798 99.7116C256.831 99.6951 256.856 99.6705 256.872 99.6377C256.889 99.6377 256.905 99.6295 256.921 99.6131C256.921 99.5967 256.93 99.5885 256.946 99.5885C256.995 99.5557 257.044 99.5147 257.094 99.4655C257.11 99.4327 257.135 99.3999 257.168 99.3671C257.184 99.3671 257.2 99.3589 257.217 99.3424C257.233 99.326 257.25 99.3096 257.266 99.2932C257.282 99.2768 257.307 99.2522 257.34 99.2194C257.504 99.0554 257.668 98.8913 257.832 98.7273C257.848 98.6945 257.873 98.6617 257.906 98.6288C257.988 98.5468 258.062 98.4648 258.127 98.3828C258.127 98.3664 258.135 98.3582 258.152 98.3582C258.152 98.3582 258.152 98.35 258.152 98.3336C258.152 98.3336 258.16 98.3336 258.176 98.3336C258.226 98.2515 258.283 98.1777 258.349 98.1121C258.349 98.0957 258.349 98.0875 258.349 98.0875C258.365 98.0875 258.373 98.0875 258.373 98.0875C258.39 98.0547 258.414 98.0219 258.447 97.9891C258.513 97.907 258.57 97.825 258.619 97.743C258.636 97.7266 258.652 97.7102 258.669 97.6938C258.734 97.5954 258.808 97.4969 258.89 97.3985C258.89 97.3821 258.898 97.3657 258.915 97.3493C258.997 97.2509 259.07 97.1442 259.136 97.0294C259.218 96.8982 259.3 96.7751 259.382 96.6603C259.448 96.5455 259.513 96.4306 259.579 96.3158C259.628 96.2502 259.669 96.1763 259.702 96.0943C259.718 96.0779 259.735 96.0615 259.751 96.0451C259.768 95.9959 259.784 95.9549 259.8 95.9221C259.866 95.8072 259.932 95.6842 259.997 95.553C260.079 95.4053 260.161 95.2495 260.243 95.0854C260.243 95.069 260.243 95.0608 260.243 95.0608C260.309 94.946 260.366 94.8394 260.416 94.7409C260.432 94.6753 260.457 94.6179 260.489 94.5687C260.539 94.4539 260.588 94.3472 260.637 94.2488C260.637 94.2488 260.637 94.2406 260.637 94.2242C260.686 94.093 260.744 93.9617 260.809 93.8305C260.809 93.8141 260.818 93.7895 260.834 93.7567C260.883 93.6254 260.932 93.4942 260.982 93.363C260.982 93.363 260.982 93.3547 260.982 93.3383C261.031 93.2071 261.08 93.0759 261.129 92.9446C261.129 92.9446 261.129 92.9364 261.129 92.92C261.146 92.9036 261.154 92.879 261.154 92.8462C261.154 92.8462 261.162 92.8462 261.178 92.8462C261.211 92.715 261.244 92.5919 261.277 92.4771C261.293 92.4607 261.301 92.4361 261.301 92.4033C261.351 92.272 261.392 92.1408 261.425 92.0096C261.441 91.9932 261.449 91.9686 261.449 91.9357C261.498 91.8045 261.539 91.6733 261.572 91.542C261.572 91.5256 261.572 91.5174 261.572 91.5174C261.572 91.501 261.572 91.4928 261.572 91.4928C261.572 91.4764 261.572 91.4682 261.572 91.4682C261.589 91.4026 261.605 91.337 261.621 91.2714C261.638 91.255 261.646 91.2385 261.646 91.2221C261.695 91.0581 261.736 90.8941 261.769 90.73C262.146 88.8927 262.056 87.2112 261.498 85.6856C260.957 84.1599 260.047 82.9214 258.767 81.9699C257.815 81.3794 256.725 80.9528 255.494 80.6904C254.28 80.4279 253.403 80.272 252.861 80.2228C252.861 80.2228 252.853 80.2228 252.837 80.2228C252.82 80.2228 252.804 80.2228 252.787 80.2228C252.673 80.2064 252.615 80.1982 252.615 80.1982C252.287 80.1654 251.967 80.1162 251.656 80.0506C251.459 80.0178 251.27 79.985 251.09 79.9521C250.745 79.8701 250.409 79.7799 250.081 79.6815C249.425 79.501 248.785 79.2714 248.161 78.9925C246.357 78.1722 244.921 76.9993 243.855 75.4737C242.789 73.9316 242.444 72.0615 242.822 69.8633V69.8387C242.953 69.2809 243.133 68.7314 243.363 68.19C244.101 66.5003 245.184 65.0567 246.611 63.8592C248.055 62.6616 249.638 61.7102 251.36 61.0048C253.099 60.283 254.797 59.8072 256.454 59.5776C259.243 59.1839 261.933 59.3643 264.525 60.1189C267.117 60.8571 269.102 62.2925 270.48 64.4251C271.399 65.918 271.718 67.6241 271.44 69.5434C271.44 69.6582 271.423 69.7813 271.39 69.9125C271.358 70.0437 271.317 70.175 271.267 70.3062C271.038 70.864 270.66 71.2987 270.135 71.6104C270.135 71.6268 270.135 71.635 270.135 71.635C270.135 71.635 270.127 71.635 270.111 71.635C269.98 71.717 269.84 71.7908 269.692 71.8565C269.676 71.8565 269.668 71.8565 269.668 71.8565C269.422 71.9549 269.168 72.0041 268.905 72.0041C268.872 72.0205 268.839 72.0287 268.807 72.0287C268.774 72.0287 268.749 72.0205 268.733 72.0041C268.7 72.0041 268.667 72.0041 268.634 72.0041C268.602 72.0041 268.569 72.0041 268.536 72.0041C268.52 72.0041 268.495 71.9959 268.462 71.9795C268.036 71.9139 267.699 71.7252 267.453 71.4135C267.437 71.3971 267.42 71.3807 267.404 71.3643C267.388 71.3315 267.371 71.3069 267.355 71.2905C267.338 71.2577 267.314 71.2167 267.281 71.1675C267.281 71.1346 267.273 71.11 267.256 71.0936C267.24 71.0772 267.232 71.0526 267.232 71.0198C267.215 71.0034 267.207 70.987 267.207 70.9706C267.191 70.9542 267.183 70.9378 267.183 70.9214C267.183 70.905 267.183 70.8968 267.183 70.8968C267.133 70.7163 267.109 70.5523 267.109 70.4046C267.125 70.2406 267.142 70.1176 267.158 70.0355C267.174 70.0355 267.183 70.0273 267.183 70.0109C267.183 69.9945 267.191 69.9699 267.207 69.9371C267.224 69.8059 267.248 69.6828 267.281 69.568C267.297 69.5024 267.314 69.4368 267.33 69.3711C267.675 67.2221 267.281 65.352 266.149 63.7608C265.017 62.1695 263.344 61.0622 261.129 60.4388C261.08 60.4388 261.039 60.4388 261.006 60.4388C260.99 60.4224 260.965 60.4142 260.932 60.4142C260.194 60.3486 259.448 60.324 258.693 60.3404C257.085 60.7669 255.609 61.8496 254.264 63.5885C252.919 65.311 251.967 67.4026 251.409 69.8633V69.8879C251.377 69.9863 251.352 70.0848 251.336 70.1832C251.336 70.1996 251.336 70.216 251.336 70.2324C251.336 70.2488 251.327 70.2734 251.311 70.3062C251.311 70.3226 251.311 70.339 251.311 70.3554C251.311 70.4046 251.303 70.4457 251.286 70.4785C251.286 70.4949 251.286 70.5031 251.286 70.5031C251.27 70.5851 251.254 70.6671 251.237 70.7491C251.237 70.7984 251.229 70.8476 251.213 70.8968C251.213 70.9788 251.204 71.069 251.188 71.1675C251.188 71.1839 251.188 71.1921 251.188 71.1921C251.172 71.2741 251.163 71.3561 251.163 71.4381C251.147 71.4545 251.139 71.4709 251.139 71.4873C251.139 71.5202 251.139 71.5612 251.139 71.6104C251.139 71.6432 251.139 71.676 251.139 71.7088C251.122 71.7088 251.114 71.7088 251.114 71.7088C251.114 71.7252 251.114 71.7498 251.114 71.7826C251.114 71.8647 251.106 71.9467 251.09 72.0287C251.09 72.0943 251.09 72.1681 251.09 72.2502C251.09 72.2502 251.09 72.2584 251.09 72.2748C251.09 72.3076 251.09 72.3486 251.09 72.3978C251.073 72.4962 251.065 72.6029 251.065 72.7177C251.065 72.7833 251.065 72.8489 251.065 72.9146C251.065 72.9966 251.065 73.0786 251.065 73.1606C251.065 73.1606 251.065 73.1688 251.065 73.1852C251.065 73.2673 251.073 73.3493 251.09 73.4313C251.09 73.4477 251.09 73.4559 251.09 73.4559C251.09 73.5379 251.09 73.62 251.09 73.702C251.09 73.702 251.09 73.7102 251.09 73.7266C251.09 73.7266 251.09 73.7348 251.09 73.7512C251.106 73.8168 251.114 73.8824 251.114 73.948C251.114 74.0465 251.122 74.1367 251.139 74.2187C251.139 74.2351 251.139 74.2515 251.139 74.2679C251.139 74.2843 251.147 74.3089 251.163 74.3418C251.163 74.3582 251.163 74.3746 251.163 74.391C251.163 74.4238 251.172 74.4648 251.188 74.514C251.188 74.5304 251.188 74.5386 251.188 74.5386C251.204 74.6534 251.221 74.7683 251.237 74.8831C251.237 74.9159 251.237 74.9405 251.237 74.9569C251.254 74.9733 251.262 74.9897 251.262 75.0061C251.278 75.121 251.303 75.2276 251.336 75.326C251.336 75.326 251.336 75.3342 251.336 75.3506C251.352 75.4327 251.368 75.5147 251.385 75.5967C251.401 75.6131 251.409 75.6377 251.409 75.6705C251.426 75.7362 251.442 75.8018 251.459 75.8674C251.475 75.9166 251.492 75.974 251.508 76.0396C251.524 76.0396 251.533 76.0396 251.533 76.0396C251.861 76.8435 252.361 77.5161 253.034 78.0574C253.608 78.4347 254.256 78.7218 254.977 78.9187C255.699 79.1155 256.331 79.2467 256.872 79.3124C257.43 79.3616 257.709 79.3862 257.709 79.3862C258.119 79.4026 258.521 79.4354 258.915 79.4846C259.341 79.5338 259.759 79.5912 260.17 79.6569C261.137 79.8209 262.081 80.0588 262.999 80.3705C264.279 80.797 265.46 81.3794 266.543 82.1176C267.642 82.8394 268.561 83.7416 269.299 84.8243C269.332 84.8735 269.356 84.9228 269.373 84.972Z" fill="white"/>
<path d="M281.7 103.837V53.8625H293.96V103.837H281.7ZM305.354 103.837L295.103 87.8712L302.757 78.2088L319.518 103.837H305.354ZM292.817 93.6547V80.4253H294.202L305.008 66.1223H318.687L301.544 86.9707H298.358L292.817 93.6547ZM332.644 104.356C330.127 104.356 327.911 103.871 325.995 102.901C324.078 101.909 322.578 100.558 321.492 98.8495C320.43 97.1179 319.899 95.1554 319.899 92.9621V92.9275C319.899 90.5494 320.488 88.5292 321.666 86.8668C322.866 85.2045 324.598 83.9 326.86 82.9534C329.123 81.9837 331.871 81.395 335.103 81.1872L350.202 80.2175V87.3517L337.077 88.2521C335.368 88.3445 334.087 88.737 333.233 89.4296C332.378 90.0992 331.951 90.9996 331.951 92.1309V92.1655C331.951 93.343 332.402 94.255 333.302 94.9015C334.226 95.5249 335.438 95.8365 336.938 95.8365C338.254 95.8365 339.409 95.6057 340.402 95.1439C341.417 94.6591 342.214 94.001 342.791 93.1699C343.391 92.3156 343.692 91.369 343.692 90.3301V78.7629C343.692 77.4008 343.253 76.3272 342.376 75.5422C341.498 74.7341 340.217 74.33 338.531 74.33C336.869 74.33 335.565 74.6648 334.618 75.3344C333.671 76.0039 333.094 76.8236 332.886 77.7933L332.817 78.1396H321.735L321.77 77.6894C321.977 75.2189 322.785 73.0602 324.194 71.2132C325.602 69.3661 327.565 67.9231 330.081 66.8842C332.621 65.8452 335.645 65.3257 339.155 65.3257C342.526 65.3257 345.469 65.8567 347.986 66.9188C350.526 67.9808 352.488 69.47 353.873 71.3863C355.282 73.3026 355.986 75.5306 355.986 78.0703V103.837H343.692V98.5032H343.449C342.733 99.7269 341.845 100.777 340.783 101.655C339.72 102.532 338.508 103.202 337.146 103.663C335.784 104.125 334.283 104.356 332.644 104.356ZM379.882 104.633C375.934 104.633 372.517 103.848 369.631 102.278C366.768 100.685 364.563 98.4224 363.016 95.4902C361.469 92.535 360.696 89.014 360.696 84.9275V84.8928C360.696 80.8524 361.469 77.3661 363.016 74.4339C364.586 71.5018 366.791 69.2507 369.631 67.6807C372.494 66.1107 375.876 65.3257 379.778 65.3257C383.334 65.3257 386.439 65.9837 389.094 67.2997C391.749 68.5927 393.816 70.3935 395.293 72.7023C396.771 75.0111 397.544 77.6663 397.614 80.6677V80.9101H386.324L386.289 80.5638C386.058 78.8322 385.4 77.4123 384.315 76.3041C383.23 75.1958 381.787 74.6417 379.986 74.6417C378.578 74.6417 377.354 75.0458 376.315 75.8539C375.299 76.6619 374.514 77.8394 373.96 79.3863C373.429 80.9101 373.163 82.7687 373.163 84.9621V84.9967C373.163 87.1901 373.429 89.0602 373.96 90.6071C374.514 92.154 375.299 93.3315 376.315 94.1396C377.354 94.9246 378.589 95.3171 380.021 95.3171C381.822 95.3171 383.253 94.786 384.315 93.724C385.4 92.6389 386.058 91.1959 386.289 89.395L386.358 89.0487H397.648L397.614 89.2565C397.544 92.1886 396.783 94.8091 395.328 97.1179C393.897 99.4267 391.865 101.262 389.233 102.624C386.624 103.964 383.507 104.633 379.882 104.633ZM413.475 104.356C410.959 104.356 408.742 103.871 406.826 102.901C404.91 101.909 403.409 100.558 402.324 98.8495C401.262 97.1179 400.731 95.1554 400.731 92.9621V92.9275C400.731 90.5494 401.319 88.5292 402.497 86.8668C403.697 85.2045 405.429 83.9 407.692 82.9534C409.954 81.9837 412.702 81.395 415.934 81.1872L431.034 80.2175V87.3517L417.908 88.2521C416.2 88.3445 414.918 88.737 414.064 89.4296C413.21 90.0992 412.783 90.9996 412.783 92.1309V92.1655C412.783 93.343 413.233 94.255 414.133 94.9015C415.057 95.5249 416.269 95.8365 417.77 95.8365C419.086 95.8365 420.24 95.6057 421.233 95.1439C422.249 94.6591 423.045 94.001 423.622 93.1699C424.223 92.3156 424.523 91.369 424.523 90.3301V78.7629C424.523 77.4008 424.084 76.3272 423.207 75.5422C422.329 74.7341 421.048 74.33 419.363 74.33C417.7 74.33 416.396 74.6648 415.449 75.3344C414.503 76.0039 413.925 76.8236 413.718 77.7933L413.648 78.1396H402.566L402.601 77.6894C402.809 75.2189 403.617 73.0602 405.025 71.2132C406.433 69.3661 408.396 67.9231 410.912 66.8842C413.452 65.8452 416.477 65.3257 419.986 65.3257C423.357 65.3257 426.301 65.8567 428.817 66.9188C431.357 67.9808 433.319 69.47 434.705 71.3863C436.113 73.3026 436.817 75.5306 436.817 78.0703V103.837H424.523V98.5032H424.28C423.565 99.7269 422.676 100.777 421.614 101.655C420.552 102.532 419.34 103.202 417.977 103.663C416.615 104.125 415.114 104.356 413.475 104.356ZM448.765 104.495C446.941 104.495 445.394 103.871 444.125 102.624C442.878 101.355 442.254 99.8077 442.254 97.9837C442.254 96.1598 442.878 94.6244 444.125 93.3777C445.394 92.1078 446.941 91.4729 448.765 91.4729C450.566 91.4729 452.09 92.1078 453.337 93.3777C454.607 94.6244 455.241 96.1598 455.241 97.9837C455.241 99.8077 454.607 101.355 453.337 102.624C452.09 103.871 450.566 104.495 448.765 104.495Z" fill="white"/>
</svg>
